<svg width="100%" viewBox="0 0 680 500" xmlns="http://www.w3.org/2000/svg">
<defs>
<marker id="arrow" viewBox="0 0 10 10" refX="8" refY="5" markerWidth="6" markerHeight="6" orient="auto-start-reverse">
<path d="M2 1L8 5L2 9" fill="none" stroke="context-stroke" stroke-width="1.5" stroke-linecap="round" stroke-linejoin="round"/>
</marker>
</defs>
<style>
.th { font-family: sans-serif; font-size: 14px; font-weight: 500; fill: #1a1a1a; }
.ts { font-family: sans-serif; font-size: 12px; font-weight: 400; fill: #555; }
.lbl { font-family: sans-serif; font-size: 11px; font-weight: 500; fill: #1a1a1a; }
.sub { font-family: sans-serif; font-size: 10px; font-weight: 400; fill: #555; }
.cap { font-family: sans-serif; font-size: 10px; font-weight: 400; fill: #888; }
.arr { stroke: #888; stroke-width: 1.5; fill: none; }
.c-purple rect { fill: #EEEDFE; stroke: #534AB7; }
.c-purple .lbl { fill: #3C3489; } .c-purple .sub { fill: #534AB7; }
.c-teal rect { fill: #E1F5EE; stroke: #0F6E56; }
.c-teal .lbl { fill: #085041; } .c-teal .sub { fill: #0F6E56; }
.c-green rect { fill: #EAF3DE; stroke: #3B6D11; }
.c-green .lbl { fill: #27500A; } .c-green .sub { fill: #3B6D11; }
.c-gray rect { fill: #F1EFE8; stroke: #888780; }
.c-gray .lbl { fill: #444441; } .c-gray .sub { fill: #5F5E5A; }
</style>

<text class="th" x="340" y="30" text-anchor="middle">DMAIC framework — laminating area optimization</text>
<text class="ts" x="340" y="48" text-anchor="middle">Frigus Bohn · 350 hrs DMAIC experience · 120 hrs Lean Six Sigma training</text>

<g class="c-purple"><rect x="40" y="72" width="108" height="44" rx="8" stroke-width="0.5"/>
<text class="lbl" x="94" y="94" text-anchor="middle" dominant-baseline="central">Define</text></g>
<line x1="148" y1="94" x2="168" y2="94" stroke="#888" stroke-width="1.5" fill="none" marker-end="url(#arrow)"/>

<g class="c-purple"><rect x="168" y="72" width="108" height="44" rx="8" stroke-width="0.5"/>
<text class="lbl" x="222" y="94" text-anchor="middle" dominant-baseline="central">Measure</text></g>
<line x1="276" y1="94" x2="296" y2="94" stroke="#888" stroke-width="1.5" fill="none" marker-end="url(#arrow)"/>

<g class="c-purple"><rect x="296" y="72" width="108" height="44" rx="8" stroke-width="0.5"/>
<text class="lbl" x="350" y="94" text-anchor="middle" dominant-baseline="central">Analyze</text></g>
<line x1="404" y1="94" x2="424" y2="94" stroke="#888" stroke-width="1.5" fill="none" marker-end="url(#arrow)"/>

<g class="c-purple"><rect x="424" y="72" width="108" height="44" rx="8" stroke-width="0.5"/>
<text class="lbl" x="478" y="94" text-anchor="middle" dominant-baseline="central">Improve</text></g>
<line x1="532" y1="94" x2="552" y2="94" stroke="#888" stroke-width="1.5" fill="none" marker-end="url(#arrow)"/>

<g class="c-purple"><rect x="552" y="72" width="88" height="44" rx="8" stroke-width="0.5"/>
<text class="lbl" x="596" y="94" text-anchor="middle" dominant-baseline="central">Control</text></g>

<text class="ts" x="340" y="148" text-anchor="middle">4 solutions implemented</text>
<line x1="340" y1="155" x2="340" y2="172" stroke="#ccc" stroke-width="0.5"/>
<line x1="100" y1="172" x2="580" y2="172" stroke="#ccc" stroke-width="0.5"/>
<line x1="100" y1="172" x2="100" y2="192" stroke="#ccc" stroke-width="0.5"/>
<line x1="260" y1="172" x2="260" y2="192" stroke="#ccc" stroke-width="0.5"/>
<line x1="420" y1="172" x2="420" y2="192" stroke="#ccc" stroke-width="0.5"/>
<line x1="580" y1="172" x2="580" y2="192" stroke="#ccc" stroke-width="0.5"/>

<g class="c-teal"><rect x="44" y="192" width="212" height="56" rx="8" stroke-width="0.5"/>
<text class="lbl" x="150" y="212" text-anchor="middle" dominant-baseline="central">Visual management</text>
<text class="sub" x="150" y="231" text-anchor="middle" dominant-baseline="central">Improve supply processes</text></g>

<g class="c-teal"><rect x="264" y="192" width="152" height="56" rx="8" stroke-width="0.5"/>
<text class="lbl" x="340" y="212" text-anchor="middle" dominant-baseline="central">Task reassignment</text>
<text class="sub" x="340" y="231" text-anchor="middle" dominant-baseline="central">Operator procedures</text></g>

<g class="c-teal"><rect x="424" y="192" width="112" height="56" rx="8" stroke-width="0.5"/>
<text class="lbl" x="480" y="212" text-anchor="middle" dominant-baseline="central">Layout redesign</text>
<text class="sub" x="480" y="231" text-anchor="middle" dominant-baseline="central">Reduce waste</text></g>

<g class="c-teal"><rect x="544" y="192" width="96" height="56" rx="8" stroke-width="0.5"/>
<text class="lbl" x="592" y="212" text-anchor="middle" dominant-baseline="central">Tool cart</text>
<text class="sub" x="592" y="231" text-anchor="middle" dominant-baseline="central">Tool control</text></g>

<line x1="150" y1="248" x2="150" y2="316" stroke="#888" stroke-width="1.5" fill="none" marker-end="url(#arrow)"/>
<line x1="340" y1="248" x2="340" y2="316" stroke="#888" stroke-width="1.5" fill="none" marker-end="url(#arrow)"/>
<line x1="480" y1="248" x2="380" y2="316" stroke="#888" stroke-width="1.5" fill="none" marker-end="url(#arrow)"/>
<line x1="592" y1="248" x2="420" y2="316" stroke="#888" stroke-width="1.5" fill="none" marker-end="url(#arrow)"/>

<g class="c-green"><rect x="100" y="316" width="200" height="56" rx="8" stroke-width="0.5"/>
<text class="lbl" x="200" y="336" text-anchor="middle" dominant-baseline="central">$14,000 USD</text>
<text class="sub" x="200" y="355" text-anchor="middle" dominant-baseline="central">annual cost savings</text></g>

<g class="c-green"><rect x="320" y="316" width="200" height="56" rx="8" stroke-width="0.5"/>
<text class="lbl" x="420" y="336" text-anchor="middle" dominant-baseline="central">32% efficiency gain</text>
<text class="sub" x="420" y="355" text-anchor="middle" dominant-baseline="central">laminating area</text></g>

<rect x="80" y="392" width="480" height="44" rx="8" fill="#F1EFE8" stroke="#ccc" stroke-width="0.5"/>
<text class="sub" x="320" y="406" text-anchor="middle" dominant-baseline="central">All 4 solutions fully implemented</text>
<text class="sub" x="320" y="424" text-anchor="middle" dominant-baseline="central">Frigus Bohn · Industrial Engineering Internship · Querétaro, Mexico</text>

</svg>
